<svg xmlns="http://www.w3.org/2000/svg" viewBox="0 0 888 870" width="888" height="870">
	<style>
		tspan { white-space:pre }
		.shp0 { fill: #343a40 } 
		.txt1 { font-size: 5px;fill: #000000;font-family: "' Helvetica  Neue',  Helvetica,  Arial" } 
	</style>
	<path id="Layer" class="shp0" d="M557.15 582.73C555.16 582.09 553.06 581.85 550.98 582.02C548.9 582.2 546.87 582.78 545.02 583.73C543.16 584.69 541.51 586 540.16 587.59C538.81 589.18 537.78 591.03 537.14 593.02C536.95 593.6 517.27 652.04 436.74 652.04C357.17 652.04 337.14 595.34 336.36 593.02C335.05 589.01 332.21 585.67 328.45 583.75C324.69 581.83 320.33 581.47 316.31 582.77C312.29 584.07 308.96 586.9 307.03 590.66C305.11 594.41 304.76 598.78 306.06 602.79C306.74 604.96 313.38 624.49 332.73 644.15C350.62 662.3 383.16 683.91 436.74 683.91C490.33 683.91 522.89 662.28 540.76 644.15C560.11 624.51 566.74 604.98 567.44 602.8C568.09 600.8 568.34 598.7 568.17 596.61C568.01 594.52 567.43 592.49 566.47 590.62C565.52 588.76 564.2 587.1 562.6 585.74C561 584.39 559.15 583.36 557.15 582.73L557.15 582.73Z" />
	<path id="Layer" class="shp0" d="M318.73 496.47C318.73 511.66 327.88 525.35 341.92 531.17C355.96 536.98 372.12 533.77 382.87 523.03C393.61 512.29 396.83 496.13 391.01 482.1C385.2 468.07 371.49 458.92 356.3 458.92C351.37 458.93 346.48 459.9 341.92 461.79C337.37 463.68 333.23 466.44 329.74 469.93C326.25 473.42 323.48 477.55 321.59 482.11C319.7 486.66 318.73 491.54 318.73 496.47L318.73 496.47Z" />
	<path id="Layer" class="shp0" d="M517.2 534.01C532.4 534.01 546.1 524.86 551.92 510.82C557.73 496.79 554.52 480.64 543.77 469.9C533.02 459.16 516.85 455.95 502.81 461.77C488.78 467.59 479.62 481.28 479.63 496.47C479.64 501.4 480.61 506.28 482.5 510.84C484.39 515.39 487.16 519.53 490.65 523.01C494.13 526.5 498.28 529.26 502.83 531.15C507.39 533.03 512.27 534.01 517.2 534.01L517.2 534.01Z" />
	<path id="Layer" class="shp0" d="M434.61 241.56C432.58 242.06 430.66 242.96 428.98 244.2C427.29 245.44 425.87 247 424.78 248.79C423.7 250.58 422.98 252.56 422.67 254.63C422.36 256.7 422.46 258.81 422.96 260.84C423.93 264.83 445.5 358.7 347.15 397.89C343.19 399.43 340.02 402.48 338.33 406.37C336.64 410.26 336.57 414.66 338.14 418.6C339.71 422.54 342.78 425.69 346.69 427.35C350.59 429.01 355 429.04 358.92 427.45C423.84 401.58 446.28 355.48 453.68 321.33C454.88 315.73 455.79 310.08 456.4 304.39C457.02 298.71 457.33 292.99 457.35 287.27C457.36 281.55 457.08 275.83 456.49 270.14C455.91 264.45 455.03 258.79 453.85 253.19C453.35 251.17 452.45 249.26 451.22 247.58C449.98 245.9 448.42 244.48 446.64 243.4C444.85 242.32 442.87 241.6 440.81 241.29C438.74 240.97 436.64 241.07 434.61 241.56L434.61 241.56Z" />
	<path id="Layer" fill-rule="evenodd" class="shp0" d="M839.62 726.22C836.98 735.82 833.47 745.16 829.16 754.14C824.84 763.11 819.73 771.68 813.88 779.74C808.03 787.8 801.47 795.33 794.28 802.22C787.09 809.11 779.29 815.34 770.98 820.84C741.32 840.64 705.51 851.06 668.29 851.06C666.32 851.06 664.36 851.03 662.39 850.97C660.42 850.91 658.46 850.82 656.5 850.71C654.53 850.59 652.57 850.45 650.61 850.28C648.65 850.1 646.69 849.9 644.74 849.67C598.62 844.27 554.06 823.48 515.34 789.43C503.42 793.43 491.19 796.47 478.78 798.51C466.36 800.55 453.81 801.59 441.23 801.61C428.65 801.63 416.09 800.64 403.67 798.64C391.25 796.64 379.01 793.65 367.07 789.68C328.42 823.59 283.97 844.28 237.95 849.67C192.43 855.02 147.59 844.73 111.7 820.87C103.39 815.37 95.6 809.14 88.41 802.25C81.22 795.36 74.66 787.83 68.81 779.77C62.96 771.71 57.85 763.14 53.53 754.17C49.21 745.19 45.71 735.85 43.06 726.25C31.13 684.01 34.64 635.55 53.2 586.11C69.43 542.91 118.77 411.43 141.05 292.33C164.44 167 245.25 108.95 308.92 82.37C375.33 54.65 435.92 54.89 441.34 54.84C446.77 54.79 507.35 54.65 573.76 82.37C637.43 108.95 718.25 167 741.59 292.33C763.87 411.43 813.2 542.91 829.48 586.11C848.06 635.55 851.56 684.01 839.62 726.22ZM799.69 597.29C783.21 553.44 733.08 420 710.35 298.17C693.74 209.1 643.99 146.45 562.5 112.08C500.51 85.97 442.23 86.63 441.63 86.63L441.04 86.63C440.47 86.63 382.27 85.92 320.21 112.08C238.71 146.52 188.96 209.1 172.35 298.17C149.59 420 99.48 553.49 83.01 597.29C66.84 640.33 63.66 681.94 73.67 717.61C75.81 725.41 78.66 732.99 82.16 740.27C85.66 747.55 89.81 754.51 94.56 761.05C99.3 767.59 104.63 773.7 110.46 779.29C116.3 784.88 122.62 789.94 129.36 794.4C158.96 814.13 196.2 822.54 234.24 818.09C237.02 817.75 239.81 817.35 242.58 816.89C187.78 793.99 162.1 746.85 160.76 744.23C158.78 740.5 158.36 736.14 159.6 732.11C160.84 728.08 163.63 724.7 167.36 722.72C171.09 720.75 175.45 720.33 179.48 721.57C183.52 722.8 186.9 725.59 188.9 729.3C190.39 732.09 225.02 794.69 300.39 797.3C303.35 795.75 306.27 794.14 309.15 792.46C312.04 790.78 314.88 789.04 317.69 787.24C320.5 785.44 323.27 783.58 325.99 781.65C328.72 779.73 331.4 777.74 334.03 775.7C315.06 765.93 297.51 753.6 281.88 739.07C266.25 724.54 252.69 707.93 241.57 689.72C230.45 671.51 221.88 651.86 216.1 631.32C210.32 610.79 207.38 589.55 207.36 568.22L207.36 327.64C207.36 323.42 209.04 319.38 212.02 316.4C215 313.41 219.05 311.74 223.27 311.74C227.49 311.74 231.54 313.41 234.53 316.4C237.51 319.38 239.19 323.42 239.19 327.64L239.19 391.55C330.64 382.58 343.93 296.93 344.48 293.08C345.05 288.9 347.26 285.12 350.62 282.57C353.98 280.02 358.22 278.91 362.4 279.48C366.58 280.05 370.37 282.26 372.92 285.62C375.47 288.98 376.58 293.21 376.02 297.39C375.03 303.03 373.75 308.61 372.18 314.12C370.61 319.62 368.75 325.04 366.61 330.35C364.47 335.66 362.06 340.85 359.38 345.91C356.69 350.97 353.75 355.88 350.55 360.63C332.59 387.32 298.94 418.71 239.16 423.48L239.16 568.22C239.16 621.68 260.41 672.95 298.23 710.76C336.05 748.56 387.36 769.8 440.85 769.8C494.34 769.8 545.64 748.56 583.47 710.76C621.29 672.95 642.54 621.68 642.54 568.22L642.54 423.48C582.77 418.7 549.13 387.32 531.14 360.63C529.89 358.75 528.68 356.87 527.53 355.01C516.92 380.11 494.45 410.63 446.7 428.68C442.76 430.18 438.38 430.04 434.53 428.31C430.68 426.57 427.68 423.38 426.19 419.44C424.69 415.49 424.83 411.11 426.56 407.27C428.3 403.42 431.49 400.42 435.44 398.93C513.67 369.36 506.08 300.22 505.71 297.3C505.23 293.54 506.1 289.74 508.17 286.57C510.24 283.4 513.38 281.07 517.01 280C520.64 278.94 524.54 279.2 528 280.74C531.45 282.29 534.25 285.02 535.87 288.44C536.03 288.77 536.25 289.34 536.3 289.49C536.35 289.63 536.38 289.6 536.48 289.9C536.57 290.2 536.67 290.6 536.73 290.81C536.79 291.01 536.86 291.17 536.92 291.44C536.99 291.71 537.03 292.05 537.08 292.29C537.13 292.52 537.22 292.76 537.22 293.02C537.78 296.96 551.12 382.5 642.51 391.47L642.51 327.64C642.51 323.42 644.19 319.38 647.17 316.4C650.16 313.41 654.2 311.74 658.42 311.74C662.65 311.74 666.69 313.41 669.68 316.4C672.66 319.38 674.34 323.42 674.34 327.64L674.34 568.22C674.32 589.49 671.4 610.67 665.65 631.15C659.9 651.63 651.37 671.24 640.31 689.41C629.25 707.59 615.76 724.17 600.21 738.7C584.66 753.23 567.19 765.56 548.3 775.37C550.97 777.44 553.68 779.46 556.44 781.41C559.19 783.37 562 785.26 564.84 787.09C567.68 788.92 570.56 790.69 573.48 792.39C576.4 794.09 579.36 795.73 582.36 797.3C658.36 794.64 693.48 730.02 693.85 729.35C695.68 725.38 699.07 722.35 703.21 720.95C707.36 719.55 711.89 719.92 715.76 721.97C719.62 724.02 722.47 727.57 723.64 731.78C724.8 735.99 724.18 740.5 721.92 744.24C720.54 746.91 694.9 793.99 640.06 816.89C642.83 817.35 645.61 817.75 648.4 818.09C686.45 822.54 723.67 814.13 753.29 794.4C760.03 789.94 766.35 784.88 772.19 779.29C778.03 773.7 783.35 767.59 788.1 761.05C792.84 754.51 796.99 747.55 800.49 740.27C804 732.99 806.84 725.41 808.99 717.61C819.08 681.94 815.85 640.33 799.69 597.29Z" />
	<text id="Created by AomAm" style="transform: matrix(1.591,0,0,1.59,33.419,884.314)" >
		<tspan x="0" y="0" class="txt1">Created by AomAm</tspan>
	</text>
</svg>